<?xml version="1.0" encoding="UTF-8" standalone="no"?>
<svg
   width="641.87714"
   height="116.92622"
   xml:space="preserve"
   overflow="hidden"
   version="1.1"
   id="svg18"
   sodipodi:docname="madsnp.svg"
   inkscape:version="1.2.2 (b0a8486541, 2022-12-01)"
   xmlns:inkscape="http://www.inkscape.org/namespaces/inkscape"
   xmlns:sodipodi="http://sodipodi.sourceforge.net/DTD/sodipodi-0.dtd"
   xmlns="http://www.w3.org/2000/svg"
   xmlns:svg="http://www.w3.org/2000/svg"><defs
     id="defs22" /><sodipodi:namedview
     id="namedview20"
     pagecolor="#ffffff"
     bordercolor="#000000"
     borderopacity="0.25"
     inkscape:showpageshadow="2"
     inkscape:pageopacity="0.0"
     inkscape:pagecheckerboard="0"
     inkscape:deskcolor="#d1d1d1"
     showgrid="false"
     inkscape:zoom="1.4745562"
     inkscape:cx="174.9679"
     inkscape:cy="84.432184"
     inkscape:window-width="1708"
     inkscape:window-height="1393"
     inkscape:window-x="1720"
     inkscape:window-y="0"
     inkscape:window-maximized="0"
     inkscape:current-layer="svg18" /><g
     transform="translate(-2600.192,-90.079106)"
     id="g16"><g
       id="g14"><g
         id="g12"><g
           id="g10"><g
             id="g8"><g
               id="g6"><g
                 aria-label="MAD"
                 transform="matrix(0.225936,0,0,0.225851,2589.39,205)"
                 id="text2"
                 style="font-weight:700;font-size:683px;font-family:'Verlag Black', 'Verlag Black_MSFontService', sans-serif;fill:#c5050b"><path
                   d="M 574.403,0 550.498,-504.054 534.789,-505.42 313.497,-219.243 86.741,-505.42 71.032,-504.054 47.81,0 h 112.012 l 4.781,-245.88 140.015,175.531 h 12.294 L 455.561,-245.88 461.708,0 Z"
                   id="path298" /><path
                   d="M 1102.3615,0 866.72652,-504.737 h -15.709 L 615.38252,0 h 118.159 l 37.565,-90.839 h 172.799 L 981.47052,0 Z M 907.02352,-179.629 h -99.035 l 49.859,-120.208 z"
                   id="path300" /><path
                   d="m 1602.9998,-254.759 c 0,-141.381 -96.986,-249.295 -304.618,-249.295 -49.859,0 -90.156,2.049 -148.211,8.196 v 491.76 c 61.47,5.464 94.254,8.196 152.992,8.196 207.632,0 299.837,-111.329 299.837,-258.857 z m -123.623,0 c 0,93.571 -48.493,155.041 -157.773,155.041 -25.271,0 -34.15,-0.683 -55.323,-2.732 v -295.056 c 17.758,-2.049 28.003,-2.732 47.81,-2.732 107.914,0 165.286,54.64 165.286,145.479 z"
                   id="path302" /></g><g
                 aria-label="S&amp;P"
                 transform="matrix(0.225936,0,0,0.225851,2958.44,205)"
                 id="text4"
                 style="font-weight:700;font-size:683px;font-family:'Verlag Black', 'Verlag Black_MSFontService', sans-serif"><path
                   d="m 364.039,-147.528 c 0,-64.202 -28.003,-109.28 -121.574,-148.894 -62.836,-26.637 -88.107,-37.565 -88.107,-70.349 0,-20.49 17.075,-40.297 59.421,-40.297 35.516,0 81.96,21.173 110.646,40.98 l 29.369,-103.816 c -29.369,-19.807 -85.375,-38.931 -140.015,-38.931 -116.793,0 -176.214,71.032 -176.214,144.113 0,60.104 30.735,111.329 118.842,146.845 76.496,30.735 89.473,48.493 89.473,74.447 0,24.588 -15.709,43.712 -56.689,43.712 -47.127,0 -99.718,-19.124 -140.015,-48.493 L 17.075,-43.029 c 43.712,28.686 112.012,51.225 168.701,51.225 120.208,0 178.263,-75.813 178.263,-155.724 z"
                   id="path305" /><path
                   d="m 756.08005,-206.949 c -17.075,21.856 -38.248,45.078 -60.787,65.568 -22.539,-21.173 -43.029,-43.029 -58.738,-61.47 64.885,-19.807 100.401,-60.787 100.401,-107.914 0,-53.957 -47.81,-105.865 -122.257,-105.865 -73.764,0 -127.038,54.64 -127.038,114.744 0,22.539 10.245,48.493 28.003,77.179 -55.323,23.222 -90.839,68.983 -90.839,115.427 0,73.764 71.032,116.11 142.064,116.11 43.029,0 84.009,-15.709 120.891,-40.297 15.026,13.66 34.833,28.003 51.225,42.346 l 58.738,-58.055 c -15.709,-12.977 -30.735,-25.954 -45.078,-38.931 21.856,-21.173 42.346,-44.395 62.153,-66.934 z m -105.865,-99.035 c 0,19.807 -14.343,41.663 -51.225,53.957 -13.66,-17.758 -18.441,-36.882 -18.441,-49.859 0,-21.856 13.66,-39.614 33.467,-39.614 22.539,0 36.199,15.709 36.199,35.516 z m -21.856,215.828 c -18.441,10.245 -36.882,16.392 -51.225,16.392 -31.418,0 -51.225,-18.441 -51.225,-44.395 0,-19.807 11.611,-39.614 31.418,-48.493 20.49,24.588 44.395,49.859 71.032,76.496 z"
                   id="path307" /><path
                   d="m 1255.3518,-325.791 c 0,-101.084 -77.862,-178.263 -222.658,-178.263 -41.663,0 -88.107,2.732 -139.332,8.196 V 0 h 116.11 v -149.577 c 15.709,0.683 26.637,1.366 43.029,1.366 132.502,0 202.851,-74.447 202.851,-177.58 z m -118.842,2.049 c 0,48.493 -30.735,75.13 -92.205,75.13 -10.928,0 -18.441,-0.683 -34.833,-1.366 v -142.747 c 17.758,-2.049 28.003,-2.732 43.029,-2.732 57.372,0 84.009,31.418 84.009,71.715 z"
                   id="path309" /></g></g></g></g></g></g></g></svg>
