<?xml version="1.0" encoding="UTF-8" standalone="no"?>
<!-- Created with Inkscape (http://www.inkscape.org/) -->

<svg
   width="1600"
   height="900"
   viewBox="0 0 423.33333 238.125"
   version="1.1"
   id="svg188"
   xmlns="http://www.w3.org/2000/svg"
   xmlns:svg="http://www.w3.org/2000/svg">
  <defs
     id="defs185" />
  <g
     id="layer1">
    <path
       d="m 426.69716,214.43084 c -1.25754,2.88683 -2.55766,5.70115 -3.8959,8.45719 l -1.03896,2.04803 c -12.28617,24.68643 -27.72064,43.92377 -45.22973,56.58664 l -1.88295,1.32915 c -8.93834,6.17581 -18.38551,10.68914 -28.21489,13.33532 1.68232,-3.59796 2.92191,-7.9397 2.74034,-12.81303 6.51294,-2.31467 12.71767,-5.5995 18.62764,-9.64008 l 1.93674,-1.31346 c 16.58888,-11.96315 30.63917,-30.26586 41.63981,-52.06669 l 1.01094,-2.08916 c 18.91007,-38.53286 28.44468,-87.46121 25.81865,-131.524175 -0.0559,-0.92913 -0.12994,-1.838119 -0.19825,-2.756035 l -0.16806,-2.369355 c -2.41978,-29.060021 -10.35502,-53.159382 -22.092,-69.385131 l -1.39092,-1.882948 c -10.12973,-13.1290072 -22.90456,-20.593508 -37.33035,-20.614798 -8.75788,-0.0159 -14.79674,6.6721138 -16.60795,15.2372438 -1.46262,6.8895162 -0.0359,15.4703402 4.333,21.0799152 2.10487,2.346957 1.15779,3.096775 0.58954,3.106846 -5.6477,0.109927 -22.34979,-3.56412 -20.72352,-22.2186682 1.0558,-12.156128 6.99824,-20.1541568 13.78129,-24.9746768 6.15206,-3.87013 13.15592,-4.32404 16.04196,-4.32404 19.39426,0 36.08853,9.27794 48.76135,26.0204048 l 1.35282,1.853782 c 12.17745,16.9991102 20.42312,41.1466662 23.44368,70.7827512 0.11755,1.166744 0.19507,2.346958 0.29483,3.517068 l 0.19285,2.261749 c 3.49127,44.372327 -4.32963,92.271787 -21.79164,132.356157 z m -87.44449,87.0048 c -0.0527,0.063 -0.71843,0.89445 -1.38755,0.89445 -0.67137,0 -1.33487,-0.8314 -1.38755,-0.89445 -3.23574,-4.06288 -8.06134,-11.94745 -6.2426,-21.35989 0.5197,-2.68117 5.08482,-3.87908 7.63015,-3.87908 2.54867,0 7.11032,1.19791 7.63149,3.87908 1.82017,9.41244 -3.0015,17.29701 -6.24394,21.35989 z m -38.04331,-18.49973 -1.89134,-1.32344 c -17.54918,-12.65625 -33.01574,-31.91253 -45.33181,-56.63303 l -1.02622,-2.0254 c -1.34888,-2.77834 -2.66234,-5.61182 -3.92973,-8.52242 -17.4582,-40.093 -25.2832,-88.00927 -21.77674,-132.390551 l 0.18999,-2.256156 c 0.10293,-1.162264 0.17728,-2.332375 0.29451,-3.489047 3.01172,-29.610287 11.24476,-53.743293 23.40403,-70.7379232 l 1.39539,-1.913193 c 12.67059,-16.7334718 29.36305,-26.0058218 48.75284,-26.0058218 2.88861,0 9.88666,0.45391 16.04094,4.32404 6.78384,4.82052 12.72494,12.8185488 13.77839,24.9746768 1.63076,18.6545482 -17.38375,21.6011112 -21.11086,21.5663542 -0.57094,-0.0064 -0.86997,-0.543563 0.97936,-2.454532 4.3703,-5.609575 5.7962,-14.190399 4.33084,-21.0799152 -1.80244,-8.56513 -7.84377,-15.2529338 -16.60524,-15.2372438 -14.44034,0.0222 -27.23099,7.5003738 -37.36241,20.651811 l -1.41322,1.918785 c -11.71499,16.230261 -19.62883,40.312783 -22.03507,69.343638 l -0.16965,2.372723 c -0.0651,0.906733 -0.14106,1.804506 -0.19571,2.72131 -2.62781,44.070815 6.91039,93.010375 25.82514,131.545575 l 1.01354,2.09365 c 11.01576,21.82963 25.09575,40.1459 41.7194,52.10345 l 1.93248,1.30898 c 5.88248,4.01256 12.05999,7.27991 18.53954,9.58191 -0.18078,4.87333 1.06476,9.21507 2.74729,12.81303 -9.7895,-2.63172 -19.19363,-7.11928 -28.09568,-13.25126 z M 410.8166,92.171949 c -2.57558,-15.700105 -10.80896,-35.238956 -26.75227,-46.880654 20.16759,-11.851289 28.23732,-24.878312 30.1169,-29.902832 11.42877,15.898482 19.26089,39.791619 20.63834,69.845742 -4.00459,2.100385 -12.67285,5.931267 -24.00297,6.937744 z M 387.06805,209.30757 c 3.49912,-6.18892 6.99379,-13.02578 10.43349,-20.62836 1.97486,-4.37895 6.97358,-16.36363 10.65653,-33.02874 l 0.20523,-0.89104 c 2.04435,-9.46399 3.37023,-19.05016 3.94185,-28.50856 l 0.0286,-0.68593 c 0.0559,-0.93698 0.10421,-1.8863 0.14583,-2.83673 0.19729,-4.89116 0.19729,-9.82826 0,-14.68579 -0.1255,-3.03288 -0.46849,-7.90049 -1.31918,-13.692765 10.88632,-0.970611 19.2945,-4.412573 23.76313,-6.663142 1.51981,44.265847 -8.1056,93.335417 -27.00558,131.377587 -4.13236,-0.87075 -14.16463,-3.52827 -20.85018,-9.75653 z m -35.87891,43.85461 c 9.60186,-6.97482 22.12564,-20.07491 34.74803,-41.88974 6.80212,6.13064 16.34569,8.83366 20.93536,9.83364 -10.88069,21.29075 -24.71243,38.93981 -41.16795,50.10529 -3.05531,-2.38393 -11.14074,-9.30395 -14.51544,-18.04919 z m -24.51575,1.49728 c 0.0191,0.0102 0.0346,0.0222 0.0502,0.0333 5.28043,3.84792 10.71774,6.00411 11.1313,6.10968 0.42144,-0.10557 5.85952,-2.26176 11.1396,-6.10968 0.10421,-0.0692 0.21636,-0.15456 0.32279,-0.22373 3.4812,8.57846 10.94122,15.23801 14.46947,18.04348 -4.77795,3.05506 -9.76212,5.58167 -14.9615,7.48265 -0.0254,-0.18303 -0.0515,-0.36336 -0.0851,-0.54594 -1.05354,-5.46825 -8.35891,-6.57459 -10.94344,-6.57459 -2.58121,0 -9.74735,1.10634 -10.80953,6.57459 -0.0318,0.18259 -0.0442,0.36292 -0.0769,0.54594 -5.12463,-1.87509 -10.04951,-4.36236 -14.78321,-7.36049 3.4338,-2.70784 10.979,-9.3564 14.54636,-17.97521 z m -36.77004,-43.17295 c 12.70264,21.90103 25.2959,34.96749 34.9019,41.867 -3.48063,8.82537 -11.72151,15.752 -14.61717,17.9909 -16.56595,-11.13701 -30.58295,-28.79526 -41.60957,-50.11179 4.24065,-0.86728 14.19647,-3.46741 21.32484,-9.74611 z M 264.55283,94.378795 c -0.84933,5.779945 -1.18914,10.635235 -1.3148,13.663625 -0.20968,4.85753 -0.20968,9.79463 0,14.68579 0.0419,0.95043 0.0918,1.89975 0.14583,2.83673 l 0.0353,0.68593 c 0.56837,9.4584 1.88879,19.04457 3.94298,28.50856 l 0.19475,0.89104 c 3.68339,16.66511 8.67922,28.64979 10.6572,33.02874 3.4776,7.69314 7.01809,14.59702 10.55657,20.84456 -7.07334,6.43236 -17.67452,8.96637 -21.24874,9.66687 -19.1394,-38.05775 -28.8816,-87.17552 -26.72091,-131.455931 4.49763,2.262895 12.88386,5.689166 23.75166,6.644086 z m 29.76981,-45.284656 c 4.98753,-3.172961 11.47595,-4.572836 18.05008,-4.999865 11.32745,-0.738603 19.37183,3.592174 25.02614,3.750201 h 0.28117 c 5.65329,-0.1579 14.4661,-4.488804 25.79511,-3.750201 6.5802,0.427029 13.12901,1.826904 18.11655,4.999865 23.07158,14.710452 26.31517,48.615662 26.78254,59.720511 1.64645,39.2839 -10.77534,69.96344 -14.62638,78.42994 -15.95789,35.15264 -35.23559,59.1657 -54.25998,67.61628 l -1.53436,0.68301 -1.52092,-0.68301 c -19.03361,-8.45058 -38.30377,-32.46364 -54.27031,-67.61628 -3.85104,-8.4665 -16.27124,-39.14604 -14.62289,-78.42994 0.4676,-11.104849 3.71487,-45.010059 26.78309,-59.720511 z m -29.42313,43.097984 c -11.25651,-0.98518 -19.89627,-4.76562 -23.96396,-6.887292 1.79898,-30.21107 9.47117,-53.915903 20.58891,-69.707921 1.97451,5.131015 10.61604,17.962998 30.54348,29.657404 -15.92584,11.654025 -24.59755,31.247775 -27.16843,46.937809 z m 65.45886,-124.295165 c 3.23068,2.06003 5.21473,5.45828 6.46553,9.07844 0.55478,1.60162 1.50186,1.62069 2.07234,0.0254 1.43015,-3.99903 3.8152,-7.6528 7.52391,-9.72628 9.43933,-5.28008 19.91765,-1.33262 24.17443,6.99601 -1.79551,0.30595 -3.33772,0.48867 -5.18029,1.06587 -0.90673,0.28371 -1.81794,0.55593 -2.74259,0.77336 l -0.68034,0.16013 c -4.15365,1.60724 -6.41432,2.82329 -9.3138,5.66676 -5.68579,5.58044 -10.37634,14.0278908 -11.34919,24.7101798 -2.7594,30.2088142 31.88776,25.4656242 33.63845,25.3187802 4.47981,0 7.85229,-7.050911 7.85229,-16.39836 0,-9.3530402 -3.45877,-16.40509521 -7.85229,-16.40509521 -2.68541,0 -7.33561,2.14632601 -7.76375,10.51867201 -0.30055,5.8819442 2.57447,13.7017352 6.28991,14.1915102 1.92663,0.253212 3.69079,-3.158378 4.24668,-6.612699 0.48644,-3.007087 0.23097,-7.7222552 -2.45005,-8.3947442 -0.84955,-0.215087 -1.70808,0.304998 -1.9233,1.1566722 -0.18713,0.767737 1.66329,2.079068 1.59155,5.541205 -0.0998,5.170219 -5.298,2.585681 -4.59415,-5.6196782 0.62877,-7.282932 4.333,-6.818922 4.49439,-6.82677 2.08244,0 5.20835,4.335257 5.20835,12.4509272 0,7.220153 -3.48009,14.99178 -10.14096,10.934485 -5.60623,-4.099868 -7.8243,-13.54034 -6.27758,-20.8445582 0.71395,-3.353418 3.60784,-12.476693 12.93845,-12.476693 13.20411,0 25.70546,6.95788599 35.73435,19.7439302 -0.006,0.0095 -0.0191,0.02224 -0.0254,0.03177 l 0.0975,0.06608 c 0.0559,0.06958 0.1077,0.144556 0.16362,0.21191 -0.98073,3.287303 -8.22779,17.605483 -30.44868,30.622403 -0.0318,-0.02224 -0.055,-0.04829 -0.0896,-0.06735 -4.84747,-2.729126 -9.30262,-3.45877 -14.13436,-3.801733 -4.3913,-0.310399 -9.00671,-0.626516 -13.28592,0.405742 l -13.43836,3.241331 c -1.74617,0.420293 -3.56634,0.431508 -5.31817,0.02859 l -14.52012,-3.327652 c -4.69064,-1.075943 -9.55872,-0.880935 -14.34092,-0.348555 -4.25981,0.475224 -7.50139,1.786556 -12.77004,3.929514 -0.0391,0.01589 -0.95489,-0.737491 -0.99032,-0.713949 C 271.1648,30.360426 264.22629,16.9445 263.1296,13.413992 273.13931,0.25359579 285.68561,-6.8186012 299.15008,-6.8186012 c 9.32972,0 12.22148,9.123275 12.92682,12.476693 1.54984,7.3042182 -0.6633,16.7446912 -6.27031,20.8445592 -6.65651,4.057295 -10.14365,-3.714332 -10.14365,-10.934485 0,-8.1156712 3.13163,-12.4509272 5.21216,-12.4509272 0.15409,0.0064 3.87233,-0.456162 4.49932,6.826769 0.69568,8.2053592 -4.49932,10.7898972 -4.60613,5.6196782 -0.068,-3.462137 1.78878,-4.773468 1.59533,-5.541204 -0.21573,-0.8518332 -1.07048,-1.3718542 -1.91723,-1.1566722 -2.68465,0.672488 -2.93942,5.3876572 -2.45174,8.3947432 0.55087,3.454322 2.31522,6.866007 4.24198,6.6127 3.71748,-0.489776 6.59611,-8.309567 6.2935,-14.1915112 -0.4316,-8.372345 -5.07675,-10.51867101 -7.76184,-10.51867101 -4.38647,0 -7.85836,7.05205501 -7.85836,16.40509521 0,9.347448 3.37997,16.398359 7.85836,16.398359 1.74674,0.14678 36.39448,4.890035 33.64181,-25.3187792 -1.00569,-10.99164 -6.4337,-19.6161778 -12.56345,-25.1865178 -2.72938,-2.47921 -5.93631,-4.11893 -9.82055,-5.45828 -2.67893,-0.80361 -4.65309,-1.35279 -6.88805,-1.73162 4.4184,-8.63573 15.51383,-12.56187 25.21959,-6.37287 z m 7.38793,-17.8823 c 13.25453,0 16.20561,11.23487 16.24148,11.35255 -0.90451,0.0616 -1.78656,0.17252 -2.65631,0.35081 l -2.4153,0.64221 c -4.49328,1.50523 -8.21431,5.03126 -10.63749,9.25554 -0.0537,0.1131 -0.20397,0.37658 -0.39901,0.50099 -0.19062,-0.12454 -0.33848,-0.38779 -0.40123,-0.50099 -2.42273,-4.22428 -6.37229,-7.70659 -10.86903,-9.21182 l -2.41184,-0.64221 c -0.86772,-0.17823 -1.75561,-0.28911 -2.65011,-0.3497 0.0222,-0.11882 2.94555,-11.39738 16.19884,-11.39738 z M 451.2807,75.798244 C 449.33612,56.720035 445.17348,39.934995 439.26913,25.760291 439.08518,25.326559 438.43862,23.79779 438.29851,23.466041 433.45445,12.383601 427.49629,2.9509748 420.55743,-4.5706812 407.99556,-18.334052 392.45237,-25.898312 375.24815,-26.142622 c -0.62766,-0.0191 -0.33401,-0.0222 -0.33401,-0.0222 -2.79975,-6.12515 -10.23286,-10.93897 -16.93185,-11.87595 0,0 -3.85444,-15.56225 -20.10262,-15.56225 -16.24503,0 -19.85265,15.4143 -19.85265,15.4143 -6.69371,0.93138 -14.39516,5.90437 -17.18674,12.0239 0,0 0.27291,0.003 -0.35193,0.0222 -17.20733,0.24431 -32.74741,7.80857 -45.31042,21.5719408 -6.93492,7.521656 -12.89397,16.9542822 -17.72996,28.0367222 -0.15186,0.331749 -0.80249,1.860518 -0.97768,2.29425 -5.92356,14.174704 -10.0762,30.959744 -12.01398,50.037953 -9.51755,93.426186 32.50436,208.262836 108.08412,225.884316 1.17428,1.75956 3.90912,5.31591 5.32469,5.31591 1.41557,0 4.15591,-3.55635 5.33162,-5.31591 C 418.7765,284.06108 460.79177,169.22443 451.2807,75.798244"
       style="opacity:1;fill:#333333;fill-opacity:0.247059;fill-rule:nonzero;stroke:none;stroke-width:0.11208"
       id="path4916" />
    <path
       d="m 372.23096,76.059398 v 7.676315 l 1.55231,-0.236373 c 0.0222,-0.0032 0.31612,-0.04257 0.72513,-0.04257 0.84958,0 2.41196,0.148051 3.38929,1.145457 0.9202,0.935866 1.21271,2.515055 0.88433,4.588531 -0.0286,0.0772 -15.43898,66.883502 -18.37096,79.614622 C 357.03858,152.70851 338.67658,64.807843 338.67658,64.807843 l -0.0772,-0.374353 h -3.64113 l -0.0591,0.395639 c 0,0 -13.28402,85.569421 -15.93985,102.695181 -3.46303,-14.82477 -18.26628,-78.256225 -18.26628,-78.256225 -0.0419,-0.405711 -0.0594,-0.792391 -0.0594,-1.152161 0,-1.796659 0.42287,-3.115837 1.27311,-3.926146 1.12427,-1.081567 2.82911,-0.929163 2.98062,-0.913468 l 1.52442,0.200472 0.0127,-7.417416 h -25.78225 v 7.256022 l 1.13996,0.179186 c 0.56488,0.109926 3.43952,0.805861 3.91236,3.435258 0.006,0.04384 30.16433,129.460898 31.44529,134.966358 l 0.0883,0.36202 h 4.53532 l 0.0524,-0.39228 c 0.14329,-0.89574 12.41855,-81.21972 14.71302,-96.26416 2.91521,14.97832 18.54806,95.39341 18.71619,96.27952 l 0.0763,0.37692 h 4.04719 L 389.30387,86.853615 c 0.6893,-2.810966 3.1573,-3.111326 4.19067,-3.111326 0.149,0 0.25003,0.0032 0.29928,0.01271 l 1.47946,0.118822 v -7.814167 h -23.04134"
       style="opacity:0.3;fill:#333333;fill-opacity:1;fill-rule:nonzero;stroke:none;stroke-width:0.11208"
       id="path4918" />
  </g>
</svg>
